# xmcd
#
# Track frame offsets: 
#        150
#        17935
#        36233
#        56352
#        70715
#        79140
#        95534
#        112408
#        136487
#        159595
#        179377
#        207648
#        225436
#        247794
#        265618
#        286681
#
# Disc length: 4127 seconds
#
# Revision: 2
# Processed by: cddbd v1.5.2PL0 Copyright (c) Steve Scherf et al.
# Submitted via: ExactAudioCopyFreeDBPlugin 1.0
#
DISCID=db101d10
DTITLE=TESTCD - STE20试音极品01B
DYEAR=2010
DGENRE=stereo
TTITLE0=你可知道我爱谁
TTITLE1=初次赏到寂寞
TTITLE2=在水一方
TTITLE3=阿淘的歌
TTITLE4=流浪者之歌
TTITLE5=相思河畔
TTITLE6=英雄序曲
TTITLE7=星星索
TTITLE8=鼓动心弦
TTITLE9=船歌
TTITLE10=挪威森林
TTITLE11=外婆的彭湖湾
TTITLE12=迈克尔杰克逊
TTITLE13=往事如昔
TTITLE14=今夜情为证
TTITLE15=痴痴的等
EXTD=
EXTT0=
EXTT1=
EXTT2=
EXTT3=
EXTT4=
EXTT5=
EXTT6=
EXTT7=
EXTT8=
EXTT9=
EXTT10=
EXTT11=
EXTT12=
EXTT13=
EXTT14=
EXTT15=
PLAYORDER=
